<svg width="169" height="35" viewBox="0 0 169 35" fill="none" xmlns="http://www.w3.org/2000/svg">
<path fill-rule="evenodd" clip-rule="evenodd" d="M17.2879 27.9013C19.4865 27.9013 21.268 26.1188 21.268 23.9202C21.268 21.7216 19.4865 19.9391 17.2879 19.9391H7.97755V13.908H16.4959L16.517 13.9156C17.4847 13.9156 18.4128 13.5312 19.0971 12.8469C19.7814 12.1626 20.1658 11.2345 20.1658 10.2668C20.1658 9.29903 19.7814 8.37093 19.0971 7.68664C18.4128 7.00234 17.4847 6.61791 16.517 6.61791L5.92946 6.61024V27.8984L17.2879 27.9013ZM22.3736 16.3789C23.8214 17.0391 25.0489 18.1018 25.9095 19.4403C26.7701 20.7788 27.2275 22.3366 27.2272 23.9278H27.1495L27.1716 23.9298C27.1716 29.4258 22.7159 33.8979 17.2198 33.8979L5.97261 33.8998H0V0.725841H5.97165L16.4383 0.717216C21.7513 0.717216 26.0584 5.14034 26.0584 10.321L26.0728 10.2327C26.0731 11.5025 25.7263 12.7482 25.0699 13.8352C24.4135 14.9222 23.4725 15.8091 22.3486 16.4L22.3736 16.3789ZM54.0028 33.8624L53.998 23.2145H40.6884V17.2438H53.9951L53.9942 13.6155C53.9942 11.5918 53.1903 9.65097 51.7593 8.21999C50.3283 6.789 48.3875 5.98508 46.3637 5.98508C44.34 5.98508 42.3992 6.789 40.9682 8.21999C39.5372 9.65097 38.7333 11.5918 38.7333 13.6155L38.7505 33.8624L32.8412 33.8662L32.7827 13.6203C32.7827 6.10877 38.8723 0.0191765 46.3839 0.0191765C53.8954 0.0191765 59.986 6.10877 59.986 13.6203L59.9946 33.8662L54.0028 33.8624ZM88.707 16.4L88.7291 16.3789C90.177 17.0391 91.4044 18.1018 92.265 19.4403C93.1256 20.7788 93.583 22.3366 93.5827 23.9278L93.5847 33.8624H87.6159L87.6236 23.9202C87.6238 23.3974 87.521 22.8797 87.3211 22.3966C87.1212 21.9135 86.828 21.4746 86.4584 21.1049C86.0888 20.7352 85.6499 20.4419 85.1669 20.2419C84.6839 20.0418 84.1662 19.9389 83.6434 19.9391H74.3331V13.908H82.8524L82.8725 13.9156C83.83 13.9001 84.743 13.5089 85.4147 12.8263C86.0863 12.1436 86.4627 11.2244 86.4627 10.2668C86.4627 9.30915 86.0863 8.3899 85.4147 7.7073C84.743 7.02469 83.83 6.63344 82.8725 6.61791L72.285 6.61024L72.3099 33.8998H66.3555V0.725841H72.3272L82.7948 0.717216C88.1078 0.717216 92.4149 5.14034 92.4149 10.321L92.4302 10.2327C92.4306 11.5024 92.084 12.7481 91.4278 13.835C90.7716 14.922 89.8308 15.8089 88.707 16.4ZM113.389 33.8643C104.23 33.8643 96.8025 26.4371 96.8025 17.2773C96.8025 8.11562 104.23 0.68941 113.389 0.68941H123.279L123.253 6.63517H113.364C107.502 6.63517 102.749 11.3881 102.749 17.2514C102.749 23.1147 107.502 27.8677 113.364 27.8677H123.253L123.279 33.8643H113.389Z" fill="#CC2229"/>
<path fill-rule="evenodd" clip-rule="evenodd" d="M142.681 28.5216C148.91 28.5216 153.959 23.4724 153.959 17.2438C153.959 11.0142 148.91 5.96398 142.681 5.96398C136.451 5.96398 131.401 11.0142 131.401 17.2438C131.401 23.4724 136.451 28.5216 142.681 28.5216ZM142.681 23.8789C144.441 23.8789 146.129 23.1799 147.373 21.9355C148.617 20.6912 149.316 19.0035 149.316 17.2438C149.316 15.484 148.617 13.7963 147.373 12.552C146.129 11.3077 144.441 10.6086 142.681 10.6086C140.921 10.6086 139.234 11.3077 137.989 12.552C136.745 13.7963 136.046 15.484 136.046 17.2438C136.046 19.0035 136.745 20.6912 137.989 21.9355C139.234 23.1799 140.921 23.8789 142.681 23.8789ZM126.684 10.9557C129.199 4.53915 135.443 0 142.746 0C150.081 0 156.348 4.57942 158.842 11.0362L158.829 10.9969C159.165 11.8749 159.76 12.6301 160.535 13.1628C161.309 13.6954 162.228 13.9803 163.168 13.9799L163.258 13.9655H168.314V20.6007H163.258L163.138 20.6103C162.214 20.6068 161.31 20.8798 160.543 21.3941C159.775 21.9084 159.179 22.6405 158.831 23.4964L158.848 23.4513C156.357 29.9158 150.087 34.5 142.746 34.5C135.469 34.5 129.244 29.9944 126.688 23.5673C125.984 21.8031 124.31 20.593 122.354 20.593L116.941 20.6007V13.9655L122.333 13.9751C123.279 13.9757 124.203 13.6867 124.981 13.147C125.759 12.6073 126.353 11.8427 126.684 10.9557Z" fill="#CC2229"/>
</svg>
