<svg width="86" height="35" viewBox="0 0 86 35" fill="none" xmlns="http://www.w3.org/2000/svg">
<path fill-rule="evenodd" clip-rule="evenodd" d="M72.5228 22.7653C74.836 22.0112 76.6161 21.2838 76.7458 18.5161C76.8235 17.0215 76.1738 15.6702 74.6404 15.2803C72.366 14.6952 70.2872 16.8137 70.9889 19.0357C71.2618 19.9189 72.0149 20.3744 72.6782 20.9328L72.5228 22.7653ZM1.49457 21.3363V34.4995H11.0845C17.4649 33.9018 17.6858 26.9232 13.4235 24.5716C17.2439 22.1287 15.9703 15.7484 11.0845 15.5143H1.53342C1.02649 17.4508 0.506932 19.3994 0 21.3363H1.49457ZM7.03004 20.6084V23.2722H8.94026C10.3309 23.2849 10.4994 20.6084 8.94026 20.6084H7.03004ZM7.03004 26.5857V29.2627H8.94026C10.3309 29.2627 10.4994 26.5989 8.94026 26.5857H7.03004ZM30.7971 20.2447H25.0276V28.8733C24.4036 28.8733 23.0265 28.8733 23.0265 27.9895V20.2447H17.192L15.7362 25.8715H17.192V30.6791C17.192 32.6413 19.076 34.4995 20.8823 34.4995H24.0788L25.0276 32.9923V34.4995H30.7971L32.2528 28.8728H30.7971V20.2447ZM40.3996 20.2447H39.8412V18.3214C39.8412 17.8538 39.2047 15.5143 37.697 15.5143H32.1096C32.4606 16.8657 32.8243 18.2301 33.1749 19.5814C34.0975 19.5814 34.0975 19.5814 34.0975 20.2442H32.9797L31.3555 26.4037H34.097V34.4995H39.8408V26.4037H40.3992V34.4995H46.1954V26.4037H47.3782L48.9243 20.2442H46.1959C46.1959 19.5814 46.1959 19.5814 47.0665 19.5814L48.1702 15.5143H42.5444C41.0367 15.5143 40.3996 17.8533 40.3996 18.3214V20.2447ZM53.7969 28.4697H62.0229C62.0739 25.754 61.7889 23.8695 59.6053 22.0374C57.6688 20.4001 55.0312 19.7378 52.6403 20.7123C50.0415 21.765 48.1308 23.7661 47.8711 26.6377C47.6113 29.3928 48.7936 31.5497 51.0161 33.1089C52.9263 34.4476 55.408 34.6554 57.6431 34.2397C58.5657 34.0576 59.3455 33.7454 60.2025 33.408C60.4623 32.0693 60.7357 30.7305 60.9954 29.3923C57.3838 30.6791 54.4597 29.9386 53.7969 28.4697ZM57.3838 25.5204H52.7054C52.7054 23.0387 57.3838 22.9212 57.3838 25.5204ZM70.2741 17.5285H68.4421V15.5143L62.7246 16.5151V17.5285H62.3871L61.2441 22.7784H62.7246V34.5H68.4421V22.7784H69.0272L70.2741 17.5285ZM76.0961 29.1588C75.7708 30.3411 75.4464 31.5366 75.1211 32.7189C76.2515 33.5507 76.7589 33.8887 78.1491 34.1742C79.1498 34.3694 80.2414 34.5121 81.2674 34.3951C83.165 34.1616 84.6197 33.2259 85.2048 31.3933C85.4515 30.5878 85.335 29.4574 85.0096 28.6907C84.7241 28.0021 84.1521 27.4433 83.567 27.0145C82.9173 26.5464 82.2419 26.3129 81.5136 26.0138C81.1115 25.8448 80.5784 25.8054 80.6041 25.2597C80.6041 25.1169 80.656 25.0392 80.7862 24.9737C81.6048 24.5838 82.6182 25.0256 83.3456 25.3767C83.7486 24.2332 84.1652 23.0897 84.5673 21.9466C83.6578 21.3227 82.995 20.8162 81.9166 20.504C81.0591 20.2442 80.1884 20.0748 79.279 20.1792C78.3816 20.2957 77.2648 20.6599 76.5627 21.2576C75.8353 21.8811 75.4066 22.6871 75.2114 23.6228C75.0948 24.1943 75.107 24.8834 75.3027 25.4418C75.5756 26.2085 76.03 26.949 76.6283 27.4952C77.2648 28.0672 78.0573 28.3658 78.8104 28.7557C79.0969 28.8985 79.2911 28.9378 79.4344 29.0937C79.8374 29.5744 79.3824 30.0546 78.8624 29.9769C77.9019 29.8473 77.0056 29.4836 76.0961 29.1588Z" fill="#50A856"/>
<path fill-rule="evenodd" clip-rule="evenodd" d="M52.9399 0.765739C53.2734 0.768279 53.5926 0.9019 53.8284 1.13775C54.0643 1.37359 54.1979 1.69274 54.2004 2.02627C54.2 2.36047 54.0671 2.68086 53.8308 2.91717C53.5945 3.15349 53.2741 3.28641 52.9399 3.2868C52.6907 3.28745 52.4468 3.21521 52.2382 3.07898L49.4574 12.1882H30.9529L28.1333 3.13142C27.9521 3.23734 27.7453 3.29127 27.5355 3.28729C27.2013 3.28703 26.8808 3.15414 26.6445 2.9178C26.4081 2.68146 26.2753 2.36099 26.275 2.02676C26.2775 1.69323 26.4112 1.37408 26.647 1.13823C26.8828 0.902385 27.202 0.768764 27.5355 0.766224C27.8697 0.766609 28.1901 0.899538 28.4264 1.13585C28.6627 1.37216 28.7957 1.69256 28.7961 2.02676C28.7961 2.40356 28.6271 2.74151 28.3673 2.97555L31.6031 5.98995L33.5522 2.91049V2.49484C33.2686 2.43605 33.0141 2.28106 32.8317 2.05612C32.6494 1.83118 32.5503 1.55011 32.5514 1.26053C32.554 0.927001 32.6876 0.607855 32.9234 0.372008C33.1593 0.136161 33.4784 0.00254031 33.812 0C34.1462 0.000257203 34.4667 0.133144 34.703 0.369484C34.9393 0.605823 35.0722 0.926295 35.0725 1.26053C35.0738 1.52658 34.99 1.78606 34.8333 2.00113C34.6767 2.21619 34.4555 2.37556 34.2019 2.456V2.81969L37.1517 5.99044L39.8417 2.81969V2.46911C39.5521 2.38162 39.3036 2.19298 39.1415 1.93756C38.9793 1.68214 38.9144 1.37697 38.9585 1.07767C39.0026 0.778371 39.1528 0.504884 39.3816 0.307063C39.6105 0.109243 39.9029 0.000266146 40.2054 0C40.5389 0.00254031 40.8581 0.136161 41.0939 0.372008C41.3298 0.607855 41.4634 0.927001 41.466 1.26053C41.466 1.85778 41.0503 2.35208 40.4914 2.49484V2.81969L43.1815 5.99044L46.0662 2.84591V2.37831C45.6763 2.15737 45.4034 1.74124 45.4034 1.26102C45.4037 0.926782 45.5366 0.606311 45.7729 0.369971C46.0092 0.133631 46.3297 0.000742503 46.6639 0.0004853C46.9975 0.00302561 47.3166 0.136647 47.5525 0.372494C47.7883 0.608341 47.9219 0.927489 47.9245 1.26102C47.9248 1.58644 47.7992 1.89936 47.574 2.13431C47.3488 2.36925 47.0415 2.50801 46.7164 2.52155V2.87213L48.6907 5.99092L52.0698 2.93719C51.8231 2.71626 51.6798 2.39142 51.6798 2.02773C51.6797 1.86213 51.7122 1.69812 51.7755 1.54508C51.8387 1.39204 51.9315 1.25296 52.0485 1.13577C52.1655 1.01858 52.3045 0.925588 52.4574 0.862098C52.6103 0.798609 52.7743 0.765866 52.9399 0.765739ZM44.4935 21.6864H45.13V24.9484H47.0276V25.533H44.4935V21.6864ZM33.643 21.6864H35.4619C35.4881 21.6995 35.5012 21.6995 35.5012 21.6995C35.8392 21.6995 36.1121 21.7903 36.2937 21.9855C36.4884 22.1671 36.5928 22.4269 36.5928 22.7648C36.5928 22.9726 36.5408 23.1678 36.4369 23.3232C36.3456 23.4791 36.216 23.583 36.0339 23.6486C36.1898 23.7 36.3068 23.7787 36.3719 23.8952C36.4369 23.9991 36.4889 24.1812 36.4889 24.4284L36.5282 24.9737C36.5413 25.2208 36.5933 25.3641 36.6841 25.4155V25.5326H35.9693C35.9431 25.4806 35.9305 25.4155 35.9043 25.3505C35.8858 25.2432 35.8771 25.1345 35.878 25.0256L35.8523 24.558C35.8392 24.3109 35.7872 24.155 35.6964 24.0773C35.6056 23.986 35.4624 23.9472 35.2415 23.9472H34.2796V25.5326H33.643V21.6864ZM34.2669 22.2326V23.4155H35.1895C35.4493 23.4155 35.6445 23.364 35.7615 23.2727C35.878 23.1688 35.9431 23.0256 35.9431 22.8178C35.9431 22.6094 35.878 22.4536 35.7741 22.3623C35.6571 22.271 35.4619 22.2322 35.2021 22.2322H34.2669V22.2326ZM37.3071 21.6864H40.0622V22.2453H37.931V23.2591H39.8932V23.7918H37.931V24.9484H40.1272V25.533H37.3071V21.6864ZM43.0644 23.3242V23.9093H41.0624V23.3242C41.0648 23.0595 41.1711 22.8064 41.3582 22.6192C41.5454 22.4321 41.7985 22.3259 42.0632 22.3234C42.6226 22.3234 43.0644 22.7653 43.0644 23.3242ZM40.4259 23.3242C40.4259 22.4274 41.1668 21.6869 42.0632 21.6869C42.9732 21.6869 43.7136 22.4147 43.7136 23.3242V25.5335H43.0639V24.5454H41.062V25.533H40.4254L40.4259 23.3242Z" fill="#E9B040"/>
</svg>
