<svg width="196" height="35" viewBox="0 0 196 35" fill="none" xmlns="http://www.w3.org/2000/svg">
<path fill-rule="evenodd" clip-rule="evenodd" d="M12.4123 18.8925V12.1366H18.8935V18.8925H12.4123Z" fill="#313A7F"/>
<path fill-rule="evenodd" clip-rule="evenodd" d="M18.8925 0.00104362V6.48128H6.48232V18.8925H0V0L18.8925 0.00104362Z" fill="#509A98"/>
<path fill-rule="evenodd" clip-rule="evenodd" d="M195.355 20.1528C195.355 16.2893 193.846 12.7328 190.948 10.018C188.091 7.34065 184.199 5.81091 180.228 5.81091C176.257 5.81091 172.328 7.34065 169.468 10.018C166.57 12.7328 165.06 16.2518 165.06 20.1528C165.06 24.5134 167.005 28.451 170.579 31.2045C173.346 33.3312 176.737 34.4891 180.227 34.5C184.198 34.5 188.007 33.0005 190.947 30.2867C193.807 27.648 195.355 24.055 195.355 20.1528ZM180.227 28.686C175.038 28.686 171.706 24.9112 171.706 20.1737C171.706 15.4738 175.19 11.627 180.227 11.627C185.189 11.627 188.711 15.4738 188.711 20.1737C188.711 24.9112 185.264 28.686 180.227 28.686ZM161.321 14.132L161.527 8.28042C159.143 7.21013 155.694 5.77228 151.992 5.77228C142.205 5.77228 136.092 12.0437 136.092 20.1132C136.092 28.3362 142.302 33.839 151.802 33.839C155.051 33.839 159.291 32.7092 161.964 31.2547L162.005 25.2506C159.497 26.9944 155.25 28.7538 151.886 28.5565C147.383 28.2913 142.55 25.7727 142.55 20.1132C142.55 14.2615 147.409 11.2574 152.567 11.6009C156.121 11.839 159.265 12.9552 161.321 14.132ZM112.681 31.3173C115.528 32.9003 118.456 34.1136 121.864 34.1136C128.444 34.1136 132.141 30.8224 132.141 25.8886C132.141 22.4459 129.502 19.3154 124.562 17.227C121.278 15.8383 119.025 15.7526 119.025 13.2288C119.025 11.4307 120.116 11.059 122.665 11.059C124.68 11.059 127.831 11.438 130.986 13.4304L131.023 8.20941C128.086 6.4959 125.834 5.77332 122.296 5.77332C115.923 5.77332 112 9.17738 111.934 13.4982C111.869 17.7094 114.183 19.7675 118.503 21.8664C122.53 23.8221 125.217 23.8628 125.217 26.2718C125.217 28.4134 123.555 28.9011 120.51 28.9011C118.083 28.9011 114.381 27.2262 112.64 25.3936L112.681 31.3173ZM100.42 33.768H106.711V6.42281H100.42V33.768ZM65.9969 33.768H72.876V18.1647L72.6411 14.6656L74.222 17.5528L87.5866 33.768H93.7567V6.42281H87.0519V21.7212L87.1115 23.9526L85.5316 22.3331L72.5356 6.42281H65.9969V33.768ZM51.8899 23.3648H43.7473L46.9144 14.6448C47.0376 14.3002 47.3665 13.0388 47.7779 10.8596C48.1486 12.8477 48.4357 14.0725 48.6007 14.5309L51.8899 23.3648ZM33.1708 33.768H39.9225L41.9795 27.954H53.3706L55.7555 33.768H62.9113L51.56 6.42281H44.3634L33.1708 33.768ZM6.48651 33.768H14.9987C24.2784 33.768 32.8314 30.1374 32.8314 20.1528C32.8314 10.1683 26.8451 6.96579 18.8915 6.52618V12.1095C23.631 12.6044 26.3752 14.7962 26.3752 20.1142C26.3752 26.3104 22.6881 27.9968 16.2737 27.9968H12.4572V18.8925H6.48651V33.768Z" fill="#313A7F"/>
</svg>
