<svg width="132" height="35" viewBox="0 0 132 35" fill="none" xmlns="http://www.w3.org/2000/svg">
<path fill-rule="evenodd" clip-rule="evenodd" d="M40.6273 5.23131V1.07861H41.6649L42.2844 3.91342L42.9031 1.07861H43.9608V5.23131H43.3019V1.95671L42.6235 5.23131H41.9445L41.2661 1.95671V5.23131H40.6273V5.23131ZM44.6197 5.23131V1.07861H45.3182V5.23131H44.6197ZM45.9973 5.23131V1.07861H46.6763L48.074 3.85379V1.07861H48.7322V5.23131H48.0337L46.6361 2.5359V5.23131H45.9973ZM49.4314 5.23131V1.07861H50.1298V5.23131H49.4314ZM50.6293 3.8933L51.3083 3.81354C51.3486 4.07369 51.4284 4.27271 51.5476 4.41285C51.6814 4.54247 51.8608 4.61423 52.0471 4.61263C52.2662 4.61263 52.4458 4.55224 52.5659 4.43298C52.664 4.32248 52.7204 4.18115 52.7254 4.03344C52.7271 3.94338 52.7066 3.85429 52.6657 3.77403C52.5898 3.70017 52.5022 3.63946 52.4063 3.59439C52.2186 3.53904 52.0321 3.47914 51.8473 3.41474C51.4679 3.31486 51.2085 3.17472 51.0691 3.0152C50.8573 2.78797 50.7426 2.48711 50.7493 2.17661C50.7493 1.95671 50.7895 1.75768 50.8894 1.57729C50.9893 1.3969 51.1488 1.25751 51.3285 1.15837C51.5081 1.05849 51.7474 1.01823 52.0075 1.01823C52.4466 1.01823 52.7664 1.11812 52.9855 1.35814C53.2047 1.5773 53.3247 1.89708 53.3247 2.2765L52.6255 2.31675C52.6061 2.09685 52.5457 1.93733 52.4458 1.83745C52.3188 1.7439 52.1645 1.69466 52.0068 1.69731C51.7869 1.69731 51.6274 1.75768 51.5275 1.85682C51.4477 1.91646 51.4075 1.99696 51.4075 2.11623C51.4075 2.21611 51.4477 2.29588 51.5074 2.35626C51.6073 2.45614 51.8272 2.55603 52.1462 2.63579C52.4854 2.73567 52.7448 2.83556 52.905 2.9347C53.0645 3.05471 53.2047 3.1941 53.2844 3.37375C53.3843 3.53326 53.4246 3.77329 53.4246 4.03269C53.4246 4.27197 53.3649 4.49186 53.2651 4.69164C53.145 4.91079 53.0049 5.05093 52.8059 5.15081C52.5678 5.25936 52.3087 5.31384 52.0471 5.31033C51.608 5.31033 51.2681 5.19032 51.0489 4.95104C50.8089 4.71251 50.6695 4.35247 50.6293 3.8933ZM54.782 5.23131V1.77781H53.7637V1.07861H56.4987V1.77781H55.4804V5.23131H54.782ZM56.9578 5.23131V1.07861H59.5131V1.77781H57.6563V2.71629H59.3737V3.41549H57.6563V4.53361H59.5727V5.23281H56.9578V5.23131V5.23131ZM57.8359 0.838591L58.1557 0H58.8944L58.2556 0.838591H57.8359ZM60.1721 5.23131V1.07861H61.6293C62.0088 1.07861 62.2682 1.11812 62.4277 1.19863C62.6073 1.25826 62.7273 1.39839 62.8272 1.59817C62.9271 1.77781 62.9867 1.99771 62.9867 2.23699C62.9867 2.55677 62.907 2.81617 62.7475 3.01594C62.6073 3.21571 62.3681 3.35511 62.0684 3.39536C62.2279 3.51537 62.3479 3.63464 62.4478 3.75465C62.5477 3.87466 62.6871 4.11394 62.8474 4.43372L63.2663 5.23206H62.4277L61.9283 4.33384C61.7486 4.01406 61.6293 3.81429 61.5697 3.7144C61.49 3.63464 61.4296 3.57426 61.3498 3.55488C61.2701 3.51537 61.1702 3.49525 61.0107 3.49525H60.8705V5.23206H60.1721V5.23131ZM60.8713 2.83556H61.3699C61.7091 2.83556 61.929 2.81543 62.0088 2.7953C62.0869 2.75702 62.1501 2.69382 62.1884 2.61566C62.248 2.5359 62.2682 2.41589 62.2682 2.29662C62.2688 2.17599 62.2341 2.05782 62.1683 1.95671C62.1379 1.91411 62.0993 1.87803 62.0548 1.85063C62.0102 1.82323 61.9606 1.80506 61.9089 1.7972C61.8492 1.7972 61.6897 1.77781 61.4095 1.77781H60.8705V2.83556H60.8713ZM63.6256 5.23131V1.07861H64.324V5.23131H63.6256ZM64.8436 3.19485C64.8436 2.7558 64.8838 2.39651 65.0031 2.11698C65.0829 1.91721 65.1827 1.71744 65.3229 1.55792C65.4429 1.37827 65.6024 1.25826 65.7619 1.1785C65.9818 1.05849 66.2211 1.01823 66.5006 1.01823C67.0202 1.01823 67.419 1.19788 67.7194 1.57729C68.0384 1.95671 68.1778 2.49565 68.1778 3.15459C68.1778 3.83367 68.0377 4.35247 67.7194 4.73189C67.58 4.91655 67.3987 5.06538 67.1904 5.16609C66.9821 5.2668 66.7528 5.3165 66.5215 5.31108C66.0019 5.31108 65.6031 5.1113 65.2834 4.75202C64.9837 4.37334 64.8436 3.85379 64.8436 3.19485ZM65.5622 3.15459C65.5622 3.6339 65.6419 3.99318 65.8216 4.23246C66.0012 4.47249 66.2412 4.59175 66.5208 4.59175C66.7802 4.59175 67.0202 4.47249 67.1991 4.23246C67.378 3.99318 67.4585 3.6339 67.4585 3.15459C67.4585 2.67529 67.3787 2.316 67.1991 2.07673C67.1236 1.96774 67.0219 1.87953 66.9034 1.82025C66.7848 1.76097 66.6532 1.73253 66.5208 1.73756C66.2211 1.73756 66.0012 1.83745 65.8216 2.07673C65.6419 2.31675 65.5622 2.67604 65.5622 3.15459ZM70.054 1.07861H71.3324C71.6119 1.07861 71.8303 1.09874 71.9906 1.15837C72.1904 1.23813 72.3708 1.35815 72.5102 1.53779C72.6503 1.71744 72.7696 1.95671 72.8292 2.21686C72.909 2.47627 72.9485 2.81543 72.9485 3.19485C72.9485 3.53476 72.909 3.83366 72.8493 4.09381C72.7487 4.39272 72.6294 4.63275 72.4692 4.81239C72.3499 4.95253 72.1896 5.0718 71.9899 5.1523C71.8296 5.21194 71.6306 5.23206 71.3712 5.23206H70.0533V1.07861H70.054ZM70.7532 1.77781V4.53286H71.2728C71.4725 4.53286 71.6119 4.53286 71.6917 4.49261C71.8017 4.47667 71.9015 4.41968 71.9712 4.3331C72.0495 4.25334 72.1099 4.11319 72.1501 3.91417C72.2098 3.73452 72.2299 3.47512 72.2299 3.15534C72.2299 2.8363 72.2098 2.59628 72.1501 2.41663C72.1179 2.27281 72.057 2.13694 71.9712 2.01709C71.8777 1.92109 71.76 1.85208 71.6306 1.81732C71.5508 1.7972 71.351 1.77781 71.0715 1.77781H70.7532ZM73.4084 3.19485C73.4084 2.7558 73.4479 2.39651 73.5485 2.11698C73.6283 1.91721 73.7483 1.71744 73.8676 1.55792C74.0077 1.37827 74.1672 1.25826 74.3275 1.1785C74.5459 1.05849 74.7859 1.01823 75.0654 1.01823C75.5649 1.01823 75.9838 1.19788 76.2827 1.57729C76.5824 1.95671 76.7426 2.49565 76.7426 3.15459C76.7426 3.83367 76.5824 4.35247 76.2827 4.73189C75.9845 5.1113 75.5835 5.31108 75.0863 5.31108C74.5668 5.31108 74.1471 5.1113 73.8474 4.75202C73.5485 4.37334 73.4084 3.85379 73.4084 3.19485V3.19485ZM74.1076 3.15459C74.1076 3.6339 74.2067 3.99318 74.3871 4.23246C74.566 4.47249 74.7859 4.59175 75.0654 4.59175C75.345 4.59175 75.5835 4.47249 75.7646 4.23246C75.9249 3.99318 76.024 3.6339 76.024 3.15459C76.024 2.67529 75.9443 2.316 75.7646 2.07673C75.5842 1.83745 75.3658 1.73756 75.0654 1.73756C74.7859 1.73756 74.5459 1.83745 74.3871 2.07673C74.2067 2.31675 74.1076 2.67604 74.1076 3.15459ZM78.6196 5.23131V1.07861H81.1741V1.77781H79.318V2.71554H81.0548V3.41474H79.318V4.53212H81.2546V5.23131H78.6196V5.23131ZM81.6534 3.8933L82.3317 3.81354C82.3727 4.07369 82.4525 4.27271 82.5926 4.41285C82.7119 4.53286 82.8722 4.61263 83.0906 4.61263C83.3105 4.61263 83.4909 4.55224 83.59 4.43298C83.6453 4.38186 83.6898 4.32015 83.7207 4.25152C83.7517 4.18288 83.7686 4.10872 83.7704 4.03344C83.7746 3.94034 83.7464 3.84866 83.6906 3.77403C83.6496 3.71366 83.5699 3.65402 83.4506 3.59439C83.2619 3.54193 83.0754 3.482 82.8915 3.41474C82.5129 3.31486 82.2542 3.17472 82.0939 3.0152C81.8942 2.77518 81.7734 2.49565 81.7734 2.17661C81.7734 1.95671 81.8345 1.75768 81.9337 1.57729C82.0343 1.39765 82.1737 1.25751 82.3735 1.15837C82.5524 1.05849 82.7723 1.01823 83.0317 1.01823C83.4715 1.01823 83.7905 1.11812 84.0097 1.35814C84.2296 1.5773 84.3488 1.89708 84.369 2.2765L83.6698 2.31675C83.6302 2.09685 83.5691 1.93733 83.47 1.83745C83.3708 1.75769 83.23 1.69731 83.0302 1.69731C82.8304 1.69731 82.6724 1.75768 82.5509 1.85682C82.5173 1.89087 82.4912 1.9315 82.4741 1.97614C82.4571 2.02079 82.4494 2.06849 82.4517 2.11623C82.4517 2.21611 82.4913 2.29588 82.5509 2.35626C82.6306 2.45614 82.8505 2.55603 83.1897 2.63579C83.5289 2.73567 83.7883 2.83556 83.9485 2.9347C84.1088 3.05471 84.2281 3.1941 84.3287 3.37375C84.4085 3.53326 84.4688 3.77329 84.4688 4.03269C84.4688 4.27197 84.4092 4.49186 84.2884 4.69164C84.1954 4.89452 84.0327 5.0574 83.83 5.15081C83.5927 5.26157 83.333 5.31615 83.0712 5.31033C82.6523 5.31033 82.3124 5.19032 82.0723 4.95104C81.8524 4.71251 81.713 4.35247 81.6534 3.8933ZM85.0473 5.23131V1.07861H86.1654C86.5843 1.07861 86.8646 1.09874 86.9839 1.13899C87.1851 1.19863 87.364 1.33877 87.4833 1.55792C87.6234 1.75769 87.6831 2.03722 87.6831 2.35626C87.6831 2.61566 87.6436 2.83555 87.5638 2.99433C87.5042 3.17397 87.4035 3.31411 87.2843 3.414C87.1785 3.50311 87.0565 3.57095 86.925 3.61377C86.7461 3.65327 86.5061 3.67415 86.2071 3.67415H85.7472V5.23131H85.0473V5.23131ZM85.7457 1.77781V2.95557H86.1259C86.4054 2.95557 86.5843 2.93544 86.6648 2.89519C86.7134 2.87916 86.7581 2.85309 86.796 2.81867C86.8339 2.78426 86.8641 2.74226 86.8847 2.69542C86.9412 2.59859 86.9689 2.48765 86.9645 2.37564C86.9671 2.24224 86.9322 2.11079 86.8639 1.99622C86.7949 1.90517 86.6958 1.84152 86.5843 1.81658C86.4197 1.78618 86.2523 1.77294 86.0849 1.77707H85.7457V1.77781ZM88.1221 3.19485C88.1221 2.7558 88.1631 2.39651 88.2824 2.11698C88.3621 1.91721 88.4613 1.71744 88.6014 1.55792C88.7415 1.37827 88.8809 1.25826 89.0412 1.1785C89.2611 1.05849 89.4996 1.01823 89.7792 1.01823C90.2987 1.01823 90.6975 1.19788 90.9979 1.57729C91.3169 1.95671 91.4563 2.49565 91.4563 3.15459C91.4563 3.83367 91.3162 4.35247 90.9979 4.73189C90.8585 4.91655 90.6772 5.06538 90.4689 5.16609C90.2606 5.2668 90.0313 5.3165 89.8 5.31108C89.2805 5.31108 88.8817 5.1113 88.5627 4.75202C88.2615 4.37334 88.1221 3.85379 88.1221 3.19485ZM88.8414 3.15459C88.8414 3.6339 88.9212 3.99318 89.1008 4.23246C89.2797 4.47249 89.5198 4.59175 89.8 4.59175C90.0803 4.59175 90.2995 4.47249 90.4784 4.23246C90.6588 3.99318 90.7378 3.6339 90.7378 3.15459C90.7378 2.67529 90.6595 2.316 90.4784 2.07673C90.3181 1.83745 90.0796 1.73756 89.8 1.73756C89.5004 1.73756 89.2805 1.83745 89.1008 2.07673C88.9212 2.31675 88.8414 2.67604 88.8414 3.15459ZM92.0147 5.23131V1.07861H93.4719C93.8312 1.07861 94.1108 1.11812 94.271 1.19863C94.4499 1.25826 94.5692 1.39839 94.6698 1.59817C94.769 1.77781 94.8301 1.99771 94.8301 2.23699C94.8301 2.55677 94.7503 2.81617 94.5901 3.01594C94.4499 3.21571 94.2099 3.35511 93.9117 3.39536C94.072 3.51537 94.1913 3.63464 94.2904 3.75465C94.391 3.87466 94.5103 4.11394 94.6907 4.43372L95.1096 5.23206H94.271L93.7716 4.33384C93.5912 4.01406 93.472 3.81429 93.4123 3.7144C93.3326 3.63464 93.2722 3.57426 93.1924 3.55488C93.1127 3.51537 93.0135 3.49525 92.8331 3.49525H92.693V5.23206H92.0147V5.23131V5.23131ZM92.693 2.83556H93.2125C93.5517 2.83556 93.7515 2.81543 93.8514 2.7953C93.9291 2.75675 93.992 2.6936 94.0303 2.61566C94.0899 2.5359 94.11 2.41589 94.11 2.29662C94.1108 2.17587 94.0758 2.05759 94.0094 1.95671C93.9791 1.91402 93.9406 1.87788 93.896 1.85047C93.8514 1.82305 93.8017 1.80494 93.75 1.7972C93.6903 1.7972 93.5301 1.77781 93.2506 1.77781H92.6915V2.83556H92.693V2.83556ZM96.2471 5.23131V1.77781H95.2296V1.07861H97.9638V1.77781H96.9463V5.23131H96.2471ZM98.4237 5.23131V1.07861H100.979V1.77781H99.1222V2.71554H100.839V3.41474H99.1222V4.53212H101.039V5.23131H98.4237V5.23131ZM102.974 5.23131V1.07861H105.531V1.77781H103.674V2.71554H105.392V3.41474H103.674V4.53212H105.591V5.23131H102.974V5.23131ZM108.306 5.23131V1.77781H107.268V1.07861H110.023V1.77781H108.985V5.23131H108.306ZM110.462 1.07861H111.161V3.33424C111.161 3.69353 111.161 3.91343 111.18 4.03344C111.2 4.18967 111.279 4.33246 111.4 4.43298C111.501 4.53286 111.659 4.5925 111.858 4.5925C112.06 4.5925 112.199 4.55299 112.298 4.4531C112.397 4.35679 112.46 4.23033 112.479 4.09381C112.497 3.95367 112.518 3.7144 112.518 3.37524V1.07936H113.196V3.25522C113.196 3.77403 113.196 4.1132 113.157 4.31297C113.12 4.50575 113.046 4.68925 112.937 4.85265C112.836 4.99279 112.697 5.09193 112.538 5.19181C112.358 5.27157 112.138 5.31182 111.878 5.31182C111.539 5.31182 111.301 5.27157 111.12 5.17169C110.964 5.07942 110.829 4.95731 110.721 4.81239C110.626 4.67346 110.558 4.51761 110.521 4.35322C110.48 4.11394 110.461 3.77478 110.461 3.29547V1.07861H110.462ZM113.937 5.23131V1.07861H115.412C115.772 1.07861 116.051 1.11812 116.212 1.19863C116.372 1.25826 116.511 1.39839 116.61 1.59817C116.711 1.77781 116.771 1.99771 116.771 2.23699C116.771 2.55677 116.691 2.81617 116.531 3.01594C116.39 3.21571 116.152 3.35511 115.852 3.39536C116.013 3.51537 116.132 3.63464 116.232 3.75465C116.332 3.87466 116.452 4.11394 116.611 4.43372L117.051 5.23206H116.212L115.713 4.33384C115.534 4.01406 115.413 3.81429 115.334 3.7144C115.273 3.63464 115.213 3.57426 115.133 3.55488C115.055 3.51537 114.933 3.49525 114.775 3.49525H114.635V5.23206H113.937V5.23131ZM114.635 2.83556H115.153C115.492 2.83556 115.692 2.81543 115.772 2.7953C115.856 2.75781 115.925 2.69498 115.972 2.61566C116.022 2.51669 116.049 2.40762 116.051 2.29662C116.052 2.17612 116.017 2.05805 115.952 1.95671C115.922 1.914 115.883 1.87787 115.838 1.85047C115.793 1.82307 115.743 1.80495 115.691 1.7972C115.632 1.7972 115.473 1.77781 115.173 1.77781H114.634V2.83556H114.635ZM117.389 5.23131V1.07861H118.088V5.23131H117.389ZM118.588 3.8933L119.266 3.81354C119.306 4.07369 119.386 4.27271 119.506 4.41285C119.626 4.53286 119.804 4.61263 120.004 4.61263C120.224 4.61263 120.404 4.55224 120.524 4.43298C120.622 4.32235 120.678 4.18115 120.684 4.03344C120.688 3.94034 120.66 3.84866 120.604 3.77403C120.563 3.71366 120.484 3.65402 120.364 3.59439C120.176 3.53904 119.99 3.47914 119.805 3.41474C119.427 3.31486 119.166 3.17472 119.026 3.0152C118.815 2.78747 118.701 2.48689 118.707 2.17661C118.707 1.95671 118.747 1.75768 118.847 1.57729C118.948 1.3969 119.086 1.25751 119.287 1.15837C119.466 1.05849 119.706 1.01823 119.965 1.01823C120.405 1.01823 120.724 1.11812 120.943 1.35814C121.163 1.5773 121.262 1.89708 121.283 2.2765L120.583 2.31675C120.571 2.14313 120.509 1.97674 120.405 1.83745C120.271 1.74122 120.109 1.69194 119.945 1.69731C119.746 1.69731 119.585 1.75768 119.486 1.85682C119.406 1.91646 119.365 1.99696 119.365 2.11623C119.365 2.21611 119.406 2.29588 119.466 2.35626C119.567 2.45614 119.766 2.55603 120.105 2.63579C120.444 2.73567 120.703 2.83556 120.864 2.9347C121.024 3.05471 121.143 3.1941 121.244 3.37375C121.343 3.53326 121.382 3.77329 121.382 4.03269C121.382 4.27197 121.323 4.49186 121.224 4.69164C121.117 4.89168 120.949 5.05249 120.744 5.15081C120.545 5.2507 120.305 5.31033 120.005 5.31033C119.567 5.31033 119.227 5.19032 119.008 4.95104C118.767 4.71251 118.627 4.35247 118.588 3.8933V3.8933ZM121.961 5.23131V1.07861H122.999L123.618 3.91342L124.237 1.07861H125.295V5.23131H124.637V1.95671L123.957 5.23131H123.279L122.6 1.95671V5.23131H121.961ZM125.833 3.19485C125.833 2.7558 125.894 2.39651 125.994 2.11698C126.073 1.91721 126.174 1.71744 126.313 1.55792C126.454 1.37827 126.592 1.25826 126.752 1.1785C126.972 1.05849 127.232 1.01823 127.511 1.01823C128.011 1.01823 128.41 1.19788 128.73 1.57729C129.028 1.95671 129.188 2.49565 129.188 3.15459C129.188 3.83367 129.028 4.35247 128.73 4.73189C128.43 5.1113 128.011 5.31108 127.511 5.31108C126.993 5.31108 126.593 5.1113 126.294 4.75202C125.994 4.37334 125.833 3.85379 125.833 3.19485ZM126.553 3.15459C126.553 3.6339 126.653 3.99318 126.832 4.23246C127.011 4.47249 127.231 4.59175 127.511 4.59175C127.79 4.59175 128.01 4.47249 128.19 4.23246C128.369 3.99318 128.47 3.6339 128.47 3.15459C128.47 2.67529 128.369 2.316 128.209 2.07673C128.03 1.83745 127.79 1.73756 127.51 1.73756C127.23 1.73756 126.992 1.83745 126.811 2.07673C126.633 2.31675 126.553 2.67604 126.553 3.15459V3.15459ZM40.6273 33.8001V29.6272H41.3459V33.8001H40.6273ZM42.0443 33.8001V29.6272H42.7435L44.2008 32.4024V29.6272H44.8598V33.8001H44.1412L42.7033 31.0845V33.8001H42.0443ZM45.4382 32.4427L46.1374 32.3629C46.1769 32.6424 46.2775 32.8422 46.3968 32.9622C46.5369 33.1024 46.6965 33.162 46.9164 33.162C47.1556 33.162 47.3353 33.1024 47.4553 32.9823C47.5552 32.8631 47.6148 32.7431 47.6148 32.5835C47.6193 32.4996 47.5985 32.4163 47.5552 32.3443C47.4901 32.2583 47.3992 32.1953 47.2958 32.1646C47.216 32.1244 47.0163 32.0647 46.7166 31.9649C46.3372 31.8642 46.0576 31.7256 45.8981 31.5653C45.6867 31.338 45.5722 31.0371 45.5791 30.7267C45.5791 30.5068 45.6193 30.3078 45.7192 30.1281C45.8392 29.9485 45.9786 29.8076 46.1784 29.7092C46.358 29.6086 46.5973 29.5691 46.8776 29.5691C47.3166 29.5691 47.6558 29.6884 47.8958 29.9083C48.115 30.1475 48.235 30.4472 48.235 30.8259L47.5164 30.8661C47.497 30.647 47.4165 30.4867 47.3167 30.4077C47.2168 30.307 47.0774 30.2675 46.8776 30.2675C46.6584 30.2675 46.4982 30.307 46.3789 30.4077C46.2992 30.4673 46.2589 30.5672 46.2589 30.6671C46.2589 30.767 46.2984 30.8467 46.3789 30.9272C46.4587 31.0062 46.6778 31.1061 47.0379 31.206C47.377 31.2858 47.6364 31.3857 47.8161 31.5057C47.9756 31.6056 48.1157 31.745 48.1955 31.9246C48.2954 32.1042 48.3356 32.3234 48.3356 32.5835C48.3356 32.8228 48.2954 33.0427 48.1761 33.2425C48.0568 33.4624 47.8966 33.6219 47.6968 33.7218C47.4777 33.8217 47.2175 33.8619 46.9186 33.8619C46.4594 33.8619 46.1203 33.7427 45.8802 33.5026C45.638 33.2604 45.4986 32.9018 45.4382 32.4427V32.4427ZM49.7512 33.8001V30.3458H48.6927V29.6272H51.5275V30.3458H50.469V33.8001H49.7512ZM51.9665 33.8001V29.6272H52.6859V33.8001H51.9665ZM54.1827 33.8001V30.3458H53.1242V29.6272H55.9597V30.3458H54.9012V33.8001H54.1827ZM56.4189 29.6272H57.1375V31.8829C57.1375 32.2414 57.1375 32.4822 57.1576 32.5821C57.1971 32.7416 57.2575 32.881 57.3768 32.9809C57.4968 33.1009 57.6563 33.1411 57.8561 33.1411C58.0558 33.1411 58.2154 33.1009 58.3152 33.001C58.4151 32.9011 58.4748 32.7811 58.4949 32.6417C58.515 32.5015 58.5351 32.2623 58.5351 31.9425V29.6272H59.2537V31.8225C59.2537 32.3219 59.2336 32.6618 59.1933 32.881C59.1531 33.0807 59.0733 33.2604 58.9742 33.3998C58.875 33.5392 58.7342 33.6599 58.5553 33.7397C58.3756 33.8187 58.1557 33.8589 57.8762 33.8589C57.537 33.8589 57.2769 33.8187 57.098 33.7188C56.9248 33.6447 56.7786 33.5193 56.6791 33.3595C56.5844 33.2205 56.5167 33.065 56.4793 32.9011C56.439 32.6618 56.4189 32.3219 56.4189 31.8426V29.6272ZM60.8109 33.8001V30.3458H59.7531V29.6272H62.5872V30.3458H61.5295V33.8001H60.8109V33.8001ZM62.8272 31.7435C62.8272 31.3245 62.8667 30.9645 62.9867 30.6656C63.0665 30.4658 63.1664 30.2668 63.3065 30.1065C63.4459 29.9269 63.6054 29.8069 63.7657 29.7271C64.0113 29.6207 64.2763 29.5663 64.5439 29.5676C65.0627 29.5676 65.4824 29.7465 65.8022 30.1267C66.122 30.5053 66.2807 31.0443 66.2807 31.7241C66.2807 32.383 66.122 32.9212 65.8022 33.3006C65.5025 33.68 65.0836 33.8597 64.5439 33.8597C64.0251 33.8597 63.6054 33.68 63.2857 33.3006C62.9674 32.9212 62.8272 32.4024 62.8272 31.7435ZM63.5659 31.704C63.5659 32.1833 63.6457 32.5425 63.8455 32.7818C64.0251 33.0211 64.2644 33.1411 64.5447 33.1411C64.8443 33.1411 65.0635 33.0211 65.2632 32.7818C65.4429 32.5425 65.5226 32.1825 65.5226 31.704C65.5226 31.2254 65.4429 30.8654 65.2632 30.6261C65.1779 30.5178 65.0686 30.4308 64.9439 30.3719C64.8192 30.3131 64.6825 30.284 64.5447 30.2869C64.2458 30.2869 64.0057 30.4069 63.8261 30.6462C63.6457 30.8855 63.5659 31.2247 63.5659 31.704ZM68.2181 29.6272H69.6552C69.9347 29.6272 70.1345 29.6466 70.2739 29.6675C70.4141 29.7077 70.5333 29.7674 70.6526 29.8464C70.7532 29.9261 70.8538 30.0469 70.9321 30.1863C70.9932 30.3458 71.0327 30.5053 71.0327 30.6857C71.0327 30.8855 70.9932 31.0644 70.8926 31.2247C70.8162 31.3809 70.6898 31.5072 70.5333 31.5832C70.7532 31.663 70.9135 31.7837 71.0327 31.9634C71.152 32.143 71.2116 32.3428 71.2116 32.5821C71.2116 32.7818 71.1721 32.9615 71.0924 33.1411C71.0126 33.32 70.9135 33.4609 70.7927 33.56C70.6525 33.6785 70.478 33.7487 70.2948 33.7606C70.1942 33.7799 69.8945 33.7799 69.4361 33.8008H68.2188V29.6272H68.2181V29.6272ZM68.9359 30.3264V31.2843H69.4152C69.6947 31.2843 69.8751 31.2843 69.9347 31.2649C70.054 31.2649 70.1546 31.2045 70.2344 31.1248C70.294 31.045 70.3335 30.9451 70.3335 30.805C70.3335 30.6648 70.294 30.5657 70.2344 30.4852C70.1733 30.4062 70.0935 30.3659 69.9735 30.3451C69.8938 30.3257 69.694 30.3257 69.3548 30.3257H68.9359V30.3264V30.3264ZM68.9359 31.9835V33.1016H69.6142C69.8751 33.1016 70.0331 33.0815 70.0935 33.0614C70.1455 33.0538 70.1955 33.0358 70.2403 33.0084C70.2852 32.9809 70.324 32.9447 70.3544 32.9018C70.4342 32.8221 70.4737 32.7021 70.4737 32.5425C70.4737 32.4233 70.4342 32.3226 70.3939 32.2228C70.3324 32.1421 70.2499 32.0799 70.1554 32.0431C70.0548 32.0036 69.8557 31.9835 69.5166 31.9835H68.9359ZM71.8117 33.8001V29.6272H73.3286C73.7088 29.6272 73.9868 29.6675 74.1672 29.7465C74.3461 29.8263 74.4669 29.947 74.5861 30.146C74.6853 30.3458 74.7263 30.5448 74.7263 30.805C74.7263 31.1039 74.6465 31.364 74.5064 31.5638C74.3461 31.7837 74.1076 31.903 73.787 31.9634C73.9473 32.0632 74.0867 32.1825 74.1873 32.3025C74.2865 32.4427 74.4057 32.6618 74.5861 32.9809L75.0259 33.8001H74.1672L73.6477 32.8817C73.4479 32.5619 73.3286 32.3629 73.269 32.2824C73.1892 32.1825 73.1289 32.143 73.0491 32.1035C72.9693 32.064 72.8493 32.0632 72.6898 32.0632H72.5295V33.8001H71.8117ZM72.5295 31.3842H73.07C73.4091 31.3842 73.629 31.3842 73.7282 31.3439C73.8081 31.3011 73.8766 31.2398 73.9279 31.165C73.9689 31.0853 73.9876 30.9854 73.9876 30.8452C73.9876 30.7051 73.9689 30.606 73.8884 30.5255C73.8622 30.4774 73.825 30.4361 73.78 30.4049C73.735 30.3737 73.6833 30.3535 73.629 30.3458H72.5303V31.3842H72.5295V31.3842ZM78.6196 33.8001H77.8406L77.541 32.8415H76.1038L75.8041 33.8001H75.0453L76.443 29.6272H77.2018L78.6196 33.8001ZM77.3017 32.143L76.8023 30.606L76.3229 32.143H77.3017ZM78.8186 32.4427L79.5178 32.3629C79.5774 32.6424 79.6579 32.8422 79.7772 32.9622C79.9173 33.1024 80.0769 33.162 80.2968 33.162C80.5353 33.162 80.7157 33.1024 80.8357 32.9823C80.955 32.8631 81.0146 32.7431 81.0146 32.5835C81.0127 32.4978 80.9854 32.4146 80.9363 32.3443C80.8705 32.2584 80.7791 32.1955 80.6754 32.1646C80.5957 32.1244 80.3959 32.0647 80.0977 31.9649C79.7176 31.8642 79.438 31.7256 79.2778 31.5653C79.0661 31.3381 78.9516 31.0372 78.9587 30.7267C78.9587 30.5068 78.9982 30.3078 79.119 30.1281C79.2181 29.9485 79.3575 29.8076 79.5573 29.7092C79.7571 29.6086 79.9762 29.5691 80.2565 29.5691C80.6963 29.5691 81.0355 29.6884 81.2755 29.9083C81.4939 30.1475 81.6146 30.4472 81.6146 30.8259L80.8953 30.8661C80.8752 30.647 80.8156 30.4867 80.6956 30.4077C80.5949 30.307 80.4555 30.2675 80.2558 30.2675C80.0359 30.2675 79.8771 30.307 79.7563 30.4077C79.6781 30.4673 79.6371 30.5672 79.6371 30.6671C79.6371 30.767 79.6781 30.8467 79.7563 30.9272C79.8361 31.0062 80.056 31.1061 80.416 31.206C80.7552 31.2858 81.0146 31.3857 81.195 31.5057C81.3538 31.6056 81.4931 31.745 81.5737 31.9246C81.6743 32.1042 81.7339 32.3234 81.7339 32.5835C81.7339 32.8228 81.6743 33.0427 81.555 33.2425C81.4488 33.4486 81.2806 33.6162 81.0742 33.7218C80.8744 33.8217 80.6158 33.8619 80.2968 33.8619C79.8368 33.8619 79.4977 33.7427 79.2584 33.5026C79.0184 33.2604 78.8782 32.9018 78.8186 32.4427V32.4427ZM82.3131 33.8001V29.6272H83.0309V33.8001H82.3131ZM83.7294 33.8001V29.6675H84.4487V33.1016H86.2452V33.8001H83.7294ZM86.7647 33.8001V29.6272H89.4005V30.3458H87.4825V31.2649H89.2604V31.9634H87.4825V33.1016H89.4601V33.8001H86.7647ZM90.058 33.8001V29.6272H90.7773V33.8001H90.058ZM91.4556 33.8001V29.6272H92.9725C93.3527 29.6272 93.6322 29.6675 93.8111 29.7465C93.9714 29.8263 94.1108 29.947 94.23 30.146C94.3307 30.3458 94.3702 30.5448 94.3702 30.805C94.3702 31.1039 94.2904 31.364 94.1503 31.5638C93.9915 31.7837 93.7515 31.903 93.4324 31.9634C93.5912 32.0632 93.712 32.1825 93.8312 32.3025C93.9304 32.4427 94.0511 32.6618 94.23 32.9809L94.6698 33.8001H93.8111L93.293 32.8817C93.0933 32.5619 92.9725 32.3629 92.9129 32.2824C92.8331 32.1825 92.7727 32.143 92.693 32.1035C92.6132 32.064 92.4932 32.0632 92.3352 32.0632H92.1749V33.8001H91.4556V33.8001ZM92.1749 31.3842H92.7139C93.053 31.3842 93.2729 31.3842 93.3527 31.3439C93.4417 31.3067 93.5181 31.2446 93.5726 31.165C93.6121 31.0853 93.6322 30.9854 93.6322 30.8452C93.6322 30.7051 93.6121 30.606 93.5316 30.5255C93.5053 30.4774 93.4682 30.4361 93.4231 30.4049C93.3781 30.3737 93.3264 30.3535 93.2722 30.3458H92.1749V31.3842ZM94.9091 31.7435C94.9091 31.3245 94.9687 30.9645 95.0694 30.6656C95.1491 30.4658 95.2691 30.2668 95.4085 30.1065C95.5487 29.9269 95.7082 29.8069 95.8685 29.7271C96.1072 29.6206 96.3659 29.5663 96.6273 29.5676C97.1662 29.5676 97.5851 29.7465 97.9042 30.1267C98.2038 30.5053 98.3641 31.0443 98.3641 31.7241C98.3641 32.383 98.2038 32.9212 97.9042 33.3006C97.5851 33.68 97.1662 33.8597 96.6459 33.8597C96.107 33.8597 95.6881 33.68 95.3892 33.3006C95.0694 32.9212 94.9091 32.4024 94.9091 31.7435ZM95.6486 31.704C95.6486 32.1833 95.7477 32.5425 95.9281 32.7818C96.1279 33.0211 96.347 33.1411 96.6459 33.1411C96.9255 33.1411 97.1655 33.0211 97.3451 32.7818C97.5255 32.5425 97.6246 32.1825 97.6246 31.704C97.6246 31.2254 97.5255 30.8654 97.3652 30.6261C97.2799 30.5176 97.1704 30.4306 97.0456 30.3717C96.9207 30.3128 96.7839 30.2838 96.6459 30.2869C96.3478 30.2869 96.107 30.4069 95.9281 30.6462C95.7477 30.8855 95.6486 31.2247 95.6486 31.704V31.704ZM100.321 29.6272H101.618C101.917 29.6272 102.157 29.6675 102.296 29.707C102.516 29.786 102.695 29.9068 102.835 30.1058C102.995 30.2854 103.115 30.5046 103.174 30.7647C103.254 31.0443 103.295 31.364 103.295 31.7628C103.295 32.1028 103.254 32.3823 103.194 32.6417C103.095 32.9406 102.974 33.1814 102.816 33.3804C102.669 33.5251 102.491 33.6345 102.296 33.7002C102.136 33.7598 101.937 33.8001 101.657 33.8001H100.321V29.6272V29.6272ZM101.039 30.3458V33.1009H101.578C101.779 33.1009 101.918 33.0807 101.997 33.0606C102.117 33.0204 102.216 32.9607 102.296 32.881C102.376 32.8012 102.436 32.6618 102.475 32.4822C102.536 32.2817 102.555 32.0424 102.555 31.7233C102.555 31.4036 102.536 31.1441 102.475 30.9846C102.442 30.8313 102.374 30.6879 102.275 30.5657C102.184 30.4716 102.065 30.4088 101.936 30.3861C101.837 30.3458 101.657 30.3458 101.358 30.3458H101.039ZM103.914 33.8001V29.6272H106.549V30.3458H104.632V31.2649H106.429V31.9634H104.632V33.1016H106.629V33.8001H103.914ZM109.423 33.8001V30.3458H108.366V29.6272H111.201V30.3458H110.142V33.8001H109.423ZM111.659 29.6272H112.379V31.8829C112.379 32.2414 112.379 32.4822 112.399 32.5821C112.438 32.7416 112.498 32.881 112.619 32.9809C112.738 33.1009 112.898 33.1411 113.098 33.1411C113.298 33.1411 113.457 33.1009 113.556 33.001C113.655 32.9047 113.718 32.7782 113.737 32.6417C113.765 32.4097 113.778 32.1762 113.776 31.9425V29.6272H114.496V31.8225C114.496 32.3219 114.475 32.6618 114.434 32.881C114.395 33.0807 114.335 33.2604 114.216 33.3998C114.109 33.5484 113.965 33.6658 113.797 33.7397C113.637 33.8187 113.397 33.8589 113.117 33.8589C112.778 33.8589 112.519 33.8187 112.34 33.7188C112.166 33.6452 112.02 33.5197 111.921 33.3595C111.826 33.2208 111.758 33.0652 111.721 32.9011C111.68 32.6618 111.66 32.3219 111.66 31.8426V29.6272H111.659V29.6272ZM115.254 33.8001V29.6272H116.771C117.149 29.6272 117.429 29.6675 117.609 29.7465C117.769 29.8263 117.907 29.947 118.008 30.146C118.127 30.3458 118.168 30.5448 118.168 30.805C118.168 31.1039 118.089 31.364 117.928 31.5638C117.769 31.7837 117.55 31.903 117.229 31.9634C117.389 32.0632 117.509 32.1825 117.609 32.3025C117.708 32.4427 117.848 32.6618 118.028 32.9809L118.466 33.8001H117.609L117.07 32.8817C116.89 32.5619 116.771 32.3629 116.69 32.2824C116.63 32.1825 116.55 32.143 116.49 32.1035C116.411 32.0632 116.291 32.0632 116.11 32.0632H115.97V33.8001H115.254ZM115.972 31.3842H116.512C116.851 31.3842 117.071 31.3842 117.149 31.3439C117.237 31.3129 117.309 31.2486 117.349 31.165C117.41 31.0853 117.429 30.9854 117.429 30.8452C117.429 30.7051 117.389 30.606 117.33 30.5255C117.301 30.4792 117.263 30.4394 117.219 30.4084C117.174 30.3775 117.124 30.3562 117.07 30.3458H115.971V31.3842H115.972V31.3842ZM118.826 33.8001V29.6272H119.546V33.8001H118.826ZM120.045 32.4427L120.744 32.3629C120.784 32.6424 120.885 32.8422 121.004 32.9622C121.144 33.1024 121.303 33.162 121.522 33.162C121.762 33.162 121.942 33.1024 122.062 32.9823C122.161 32.8631 122.221 32.7431 122.221 32.5835C122.226 32.4996 122.205 32.4162 122.161 32.3443C122.096 32.2583 122.005 32.1953 121.902 32.1646C121.801 32.1244 121.623 32.0647 121.323 31.9649C120.944 31.8642 120.665 31.7256 120.504 31.5653C120.293 31.3381 120.178 31.0372 120.185 30.7267C120.185 30.5068 120.225 30.3078 120.325 30.1281C120.445 29.9485 120.585 29.8076 120.784 29.7092C120.964 29.6086 121.203 29.5691 121.483 29.5691C121.923 29.5691 122.262 29.6884 122.482 29.9083C122.721 30.1475 122.84 30.4472 122.84 30.8259L122.122 30.8661C122.102 30.647 122.021 30.4867 121.922 30.4077C121.822 30.307 121.682 30.2675 121.482 30.2675C121.262 30.2675 121.102 30.307 120.983 30.4077C120.903 30.4673 120.864 30.5672 120.864 30.6671C120.864 30.767 120.903 30.8467 120.983 30.9272C121.063 31.0062 121.283 31.1061 121.643 31.206C121.982 31.2858 122.241 31.3857 122.422 31.5057C122.58 31.6056 122.72 31.745 122.8 31.9246C122.901 32.1042 122.94 32.3234 122.94 32.5835C122.94 32.8228 122.901 33.0427 122.78 33.2425C122.661 33.4624 122.501 33.6219 122.301 33.7218C122.081 33.8217 121.822 33.8619 121.522 33.8619C121.063 33.8619 120.724 33.7427 120.484 33.5026C120.244 33.2604 120.105 32.9018 120.045 32.4427V32.4427ZM123.537 33.8001V29.6272H124.617L125.274 32.462L125.914 29.6272H126.992V33.8001H126.313V30.5255L125.615 33.8001H124.916L124.217 30.5255V33.8001H123.537ZM127.552 31.7435C127.552 31.3245 127.611 30.9645 127.71 30.6656C127.79 30.4658 127.912 30.2668 128.049 30.1065C128.19 29.9269 128.349 29.8069 128.509 29.7271C128.755 29.6186 129.02 29.5642 129.288 29.5676C129.806 29.5676 130.226 29.7465 130.547 30.1267C130.866 30.5053 131.005 31.0443 131.005 31.7241C131.005 32.383 130.865 32.9212 130.547 33.3006C130.226 33.68 129.807 33.8597 129.288 33.8597C128.769 33.8597 128.329 33.68 128.03 33.3006C127.71 32.9212 127.552 32.4024 127.552 31.7435ZM128.289 31.704C128.289 32.1833 128.39 32.5425 128.569 32.7818C128.769 33.0211 129.009 33.1411 129.288 33.1411C129.568 33.1411 129.806 33.0211 129.988 32.7818C130.187 32.5425 130.267 32.1825 130.267 31.704C130.267 31.2254 130.187 30.8654 130.006 30.6261C129.921 30.5178 129.812 30.4308 129.687 30.372C129.563 30.3131 129.426 30.284 129.288 30.2869C128.989 30.2869 128.748 30.4069 128.569 30.6462C128.39 30.8855 128.289 31.2247 128.289 31.704ZM41.4458 26.1141V10.0422H49.9703V12.7578H43.761V16.3112H49.5313V19.0267H43.761V23.3985H50.1701V26.1141H41.4458ZM52.1067 26.1141V10.0422H55.5803L57.6563 21.0028L59.7129 10.0422H63.2066V26.1141H61.0502V13.4562L58.7744 26.1141H56.5389L54.2624 13.4562V26.1141H52.1067V26.1141ZM65.5025 10.0422H70.0935C71.0119 10.0422 71.6924 10.0817 72.13 10.2017C72.5698 10.3016 72.9686 10.5215 73.3279 10.8607C73.6872 11.1998 73.9667 11.6389 74.206 12.198C74.446 12.757 74.5653 13.3958 74.5653 14.0749C74.5683 14.7906 74.4184 15.4986 74.1255 16.1516C73.8273 16.7897 73.4471 17.2496 72.9477 17.5687C73.6469 17.8482 74.1866 18.3469 74.5653 19.026C74.9246 19.705 75.1243 20.5235 75.1243 21.4411C75.1243 22.1798 75.0051 22.8984 74.765 23.5774C74.5056 24.2766 74.1873 24.8148 73.7677 25.2345C73.348 25.6542 72.8284 25.8935 72.2098 25.9933C71.8296 26.0537 70.8919 26.094 69.4145 26.1133H65.5018V10.0422H65.5025V10.0422ZM67.8178 12.7175V16.4312H69.3347C70.253 16.4312 70.8121 16.411 71.032 16.3708C71.4308 16.3112 71.7312 16.1114 71.9712 15.7923C72.1896 15.4726 72.3104 15.0536 72.3104 14.5341C72.3104 14.0354 72.2098 13.6359 72.0107 13.3369C71.811 13.0172 71.5314 12.8375 71.1311 12.7779C70.9127 12.7376 70.253 12.7175 69.1558 12.7175H67.8178V12.7175ZM67.8178 19.1057V23.3985H69.9743C70.8128 23.3985 71.3324 23.3583 71.5508 23.2987C71.9101 23.2189 72.1896 22.9998 72.4095 22.6598C72.6093 22.3207 72.7301 21.8615 72.7301 21.3032C72.7301 20.8231 72.6503 20.4042 72.4692 20.0651C72.3231 19.7428 72.0693 19.4816 71.7513 19.3264C71.4308 19.1862 70.7525 19.1065 69.694 19.1065H67.8178V19.1057V19.1057ZM77.0818 26.1141V10.043H81.9732C83.1905 10.043 84.0887 10.1831 84.6276 10.482C85.1867 10.7615 85.6466 11.2804 85.9656 12.0191C86.3048 12.7578 86.4651 13.5964 86.4651 14.5348C86.4651 15.7528 86.225 16.7509 85.7062 17.5299C85.2068 18.3089 84.448 18.8075 83.4499 19.0073C83.9493 19.4262 84.3682 19.8653 84.6887 20.364C85.0078 20.8634 85.4476 21.7221 86.0051 22.9796L87.4028 26.1141H84.6276L82.9504 22.6002C82.3727 21.3628 81.9531 20.5839 81.7332 20.2447C81.5133 19.9249 81.2934 19.7058 81.034 19.5858C80.7939 19.4657 80.4153 19.4061 79.8763 19.4061H79.397V26.1141H77.0818V26.1141ZM79.3985 16.83H81.1152C82.2333 16.83 82.9325 16.7703 83.2113 16.6302C83.4707 16.5102 83.6906 16.2709 83.8501 15.9511C84.0089 15.6313 84.0887 15.2325 84.0887 14.7532C84.0887 14.2143 83.9895 13.7753 83.7696 13.4353C83.6754 13.2797 83.5508 13.1447 83.4033 13.0383C83.2557 12.9319 83.0883 12.8562 82.9109 12.8159C82.7112 12.7764 82.1521 12.7563 81.2136 12.7563H79.3978V16.83H79.3985ZM99.0014 26.1141H96.4872L95.4883 22.4608H90.8965L89.9588 26.1141H87.4825L91.955 10.043H94.4112L99.0014 26.1141V26.1141ZM94.7503 19.7453L93.1529 13.7961L91.6159 19.7453H94.7503ZM101.638 26.1141V12.7578H98.224V10.0422H107.347V12.7578H103.953V26.1141H101.638V26.1141ZM108.824 10.0422H111.14V18.7464C111.14 20.1239 111.18 21.0229 111.22 21.4217C111.319 22.0807 111.559 22.6188 111.938 23.0191C112.318 23.4179 112.818 23.5976 113.475 23.5976C114.135 23.5976 114.613 23.4179 114.953 23.0393C115.292 22.6591 115.491 22.2007 115.551 21.661C115.631 21.1019 115.652 20.2037 115.652 18.9261V10.0422H117.968V18.487C117.968 20.4035 117.907 21.7616 117.787 22.56C117.668 23.3583 117.428 24.0374 117.088 24.5763C116.764 25.1235 116.303 25.5775 115.752 25.8942C115.193 26.214 114.453 26.3735 113.534 26.3735C112.436 26.3735 111.618 26.214 111.038 25.8547C110.479 25.4961 110.021 25.0362 109.702 24.4772C109.388 23.9171 109.165 23.3107 109.042 22.6807C108.902 21.7624 108.822 20.4042 108.822 18.6078V10.0422H108.824ZM120.424 26.1141V10.043H125.315C126.533 10.043 127.431 10.1831 127.97 10.482C128.53 10.7615 128.988 11.2804 129.307 12.0191C129.648 12.7578 129.806 13.5964 129.806 14.5348C129.806 15.7528 129.568 16.7509 129.048 17.5299C128.548 18.3089 127.789 18.8075 126.793 19.0073C127.266 19.3997 127.683 19.8563 128.03 20.364C128.349 20.8634 128.789 21.7221 129.348 22.9796L130.746 26.1141H127.97L126.293 22.6002C125.693 21.3628 125.294 20.5839 125.075 20.2447C124.856 19.9249 124.636 19.7058 124.375 19.5858C124.137 19.4657 123.738 19.4061 123.218 19.4061H122.738V26.1141H120.424V26.1141ZM122.74 16.83H124.457C125.575 16.83 126.274 16.7703 126.553 16.6302C126.812 16.5102 127.032 16.2709 127.192 15.9511C127.352 15.6313 127.43 15.2325 127.43 14.7532C127.43 14.2143 127.331 13.7753 127.111 13.4353C127.017 13.2796 126.892 13.1445 126.745 13.038C126.597 12.9316 126.43 12.856 126.252 12.8159C126.053 12.7764 125.493 12.7563 124.556 12.7563H122.739V16.83H122.74V16.83Z" fill="black"/>
<path fill-rule="evenodd" clip-rule="evenodd" d="M0 1.45804H32.1825L0 33.7404V1.45804Z" fill="#33A457"/>
<path fill-rule="evenodd" clip-rule="evenodd" d="M20.8224 34.4784H0.718582L32.9205 2.19598V21.8809C31.3458 20.5356 29.3413 19.7988 27.2702 19.8042C22.4586 19.8042 18.5265 23.7377 18.5265 28.5687C18.5277 30.7561 19.3466 32.8639 20.8224 34.4784V34.4784Z" fill="#FFF22D"/>
<path fill-rule="evenodd" clip-rule="evenodd" d="M33.001 34.4993V23.359C32.2762 22.5593 31.3918 21.9205 30.4048 21.4838C29.4179 21.0471 28.3502 20.8223 27.271 20.8239C23.0184 20.8239 19.5254 24.2975 19.5254 28.5702C19.5254 30.9466 20.6032 33.0822 22.3006 34.5H33.001V34.4993V34.4993Z" fill="#00ACEC"/>
</svg>
