<svg width="31" height="30" className='plus-icon' viewBox="0 0 31 30" xmlns="http://www.w3.org/2000/svg">
<g opacity="0.7">
<path d="M15.25 0C6.95 0 0.25 6.7 0.25 15C0.25 23.3 6.95 30 15.25 30C23.55 30 30.25 23.3 30.25 15C30.25 6.7 23.55 0 15.25 0ZM22.25 15.5H15.75V22C15.75 22.3 15.55 22.5 15.25 22.5C14.95 22.5 14.75 22.3 14.75 22V15.5H8.25C7.95 15.5 7.75 15.3 7.75 15C7.75 14.7 7.95 14.5 8.25 14.5H14.75V8C14.75 7.7 14.95 7.5 15.25 7.5C15.55 7.5 15.75 7.7 15.75 8V14.5H22.25C22.55 14.5 22.75 14.7 22.75 15C22.75 15.3 22.55 15.5 22.25 15.5Z"/>
</g>
</svg>
